<?xml version="1.0" encoding="UTF-8"?>
<svg width="1920" height="1080" xmlns="http://www.w3.org/2000/svg">
    <!-- Background gradient -->
    <defs>
        <linearGradient id="spaceGradient" x1="0%" y1="0%" x2="0%" y2="100%">
            <stop offset="0%" style="stop-color:#000000;stop-opacity:1" />
            <stop offset="100%" style="stop-color:#1a0033;stop-opacity:1" />
        </linearGradient>
    </defs>
    
    <!-- Background -->
    <rect width="100%" height="100%" fill="url(#spaceGradient)"/>
    
    <!-- Stars -->
    <g fill="#ffffff">
        <!-- Small stars -->
        <circle cx="100" cy="100" r="1" opacity="0.8"/>
        <circle cx="300" cy="200" r="1" opacity="0.6"/>
        <circle cx="500" cy="150" r="1" opacity="0.7"/>
        <circle cx="700" cy="300" r="1" opacity="0.5"/>
        <circle cx="900" cy="250" r="1" opacity="0.8"/>
        <circle cx="1100" cy="350" r="1" opacity="0.6"/>
        <circle cx="1300" cy="200" r="1" opacity="0.7"/>
        <circle cx="1500" cy="300" r="1" opacity="0.5"/>
        <circle cx="1700" cy="250" r="1" opacity="0.8"/>
        
        <!-- Medium stars -->
        <circle cx="200" cy="400" r="2" opacity="0.7"/>
        <circle cx="400" cy="500" r="2" opacity="0.6"/>
        <circle cx="600" cy="450" r="2" opacity="0.8"/>
        <circle cx="800" cy="600" r="2" opacity="0.7"/>
        <circle cx="1000" cy="550" r="2" opacity="0.6"/>
        <circle cx="1200" cy="650" r="2" opacity="0.8"/>
        <circle cx="1400" cy="500" r="2" opacity="0.7"/>
        <circle cx="1600" cy="600" r="2" opacity="0.6"/>
        
        <!-- Large stars -->
        <circle cx="250" cy="700" r="3" opacity="0.9"/>
        <circle cx="450" cy="800" r="3" opacity="0.8"/>
        <circle cx="650" cy="750" r="3" opacity="0.9"/>
        <circle cx="850" cy="900" r="3" opacity="0.8"/>
        <circle cx="1050" cy="850" r="3" opacity="0.9"/>
        <circle cx="1250" cy="950" r="3" opacity="0.8"/>
        <circle cx="1450" cy="800" r="3" opacity="0.9"/>
        <circle cx="1650" cy="900" r="3" opacity="0.8"/>
    </g>
</svg> 